<?xml version="1.0" encoding="UTF-8"?>
<svg version="1.1" xmlns="http://www.w3.org/2000/svg" width="102" height="64">
<path d="M0 0 C33.66 0 67.32 0 102 0 C102 21.12 102 42.24 102 64 C68.34 64 34.68 64 0 64 C0 42.88 0 21.76 0 0 Z " fill="#FCFCFC" transform="translate(0,0)"/>
<path d="M0 0 C3.375 -0.125 3.375 -0.125 7 0 C9 2 9 2 9.1953125 4.6015625 C9.17210938 5.59929688 9.14890625 6.59703125 9.125 7.625 C9.10695313 8.62789062 9.08890625 9.63078125 9.0703125 10.6640625 C9.03550781 11.82035156 9.03550781 11.82035156 9 13 C7.35425434 13.02688151 5.70838587 13.04634123 4.0625 13.0625 C3.14597656 13.07410156 2.22945312 13.08570313 1.28515625 13.09765625 C-1 13 -1 13 -2 12 C-2.04063832 10.33382885 -2.042721 8.66611905 -2 7 C0.90600261 5.74335022 2.79604584 5 6 5 C5.67 4.34 5.34 3.68 5 3 C2.97536745 2.34786708 2.97536745 2.34786708 1 2 C1 2.66 1 3.32 1 4 C0.01 4 -0.98 4 -2 4 C-1.34 2.68 -0.68 1.36 0 0 Z " fill="#101010" transform="translate(59,9)"/>
<path d="M0 0 C4.59195094 1.14798774 4.87820524 1.73528573 7.25 5.5625 C8.03117188 6.80193359 8.03117188 6.80193359 8.828125 8.06640625 C9.21484375 8.70449219 9.6015625 9.34257812 10 10 C10.33 6.7 10.66 3.4 11 0 C11.66 0 12.32 0 13 0 C13 5.61 13 11.22 13 17 C7.58617096 14.29308548 6.1966793 11.08562616 3 6 C2.67 9.63 2.34 13.26 2 17 C1.34 17 0.68 17 0 17 C0 11.39 0 5.78 0 0 Z " fill="#080808" transform="translate(3,5)"/>
<path d="M0 0 C2.875 -0.125 2.875 -0.125 6 0 C8.58926331 2.58926331 8.37398043 4.02705279 8.625 7.625 C8.69976562 8.62789062 8.77453125 9.63078125 8.8515625 10.6640625 C8.92503906 11.82035156 8.92503906 11.82035156 9 13 C7.37536158 13.05395478 5.75021459 13.09277195 4.125 13.125 C3.22007813 13.14820313 2.31515625 13.17140625 1.3828125 13.1953125 C-1 13 -1 13 -3 11 C-2.875 9 -2.875 9 -2 7 C0.58152302 5.27898465 1.84918025 5 5 5 C5 4.01 5 3.02 5 2 C2.69 2.66 0.38 3.32 -2 4 C-1.34 2.68 -0.68 1.36 0 0 Z " fill="#141414" transform="translate(22,9)"/>
<path d="M0 0 C0.99 0 1.98 0 3 0 C3.33 2.64 3.66 5.28 4 8 C4.433125 7.505 4.86625 7.01 5.3125 6.5 C7 5 7 5 10 5 C9.34 6.32 8.68 7.64 8 9 C7.34 9 6.68 9 6 9 C7.65 11.97 9.3 14.94 11 18 C9.68 17.67 8.36 17.34 7 17 C5.75 14.4375 5.75 14.4375 5 12 C4.34 12 3.68 12 3 12 C3 13.98 3 15.96 3 18 C2.01 18 1.02 18 0 18 C0 12.06 0 6.12 0 0 Z " fill="#313131" transform="translate(82,4)"/>
<path d="M0 0 C2.33944736 0.28730055 4.6739143 0.61936779 7 1 C7 1.99 7 2.98 7 4 C4.03 3.505 4.03 3.505 1 3 C3.31856917 4.54571278 5.50638429 5.79618552 8 7 C7.125 11.875 7.125 11.875 6 13 C4.00041636 13.04080783 1.99954746 13.04254356 0 13 C-0.66 11.68 -1.32 10.36 -2 9 C0.31 9.33 2.62 9.66 5 10 C2.68143083 8.45428722 0.49361571 7.20381448 -2 6 C-1.125 1.125 -1.125 1.125 0 0 Z " fill="#0E0E0E" transform="translate(72,9)"/>
<path d="M0 0 C0.99 0 1.98 0 3 0 C3.99 2.31 4.98 4.62 6 7 C6.99 4.69 7.98 2.38 9 0 C9.66 0 10.32 0 11 0 C10.40895235 4.84659077 9.02055843 8.60748167 7 13 C6.01 13 5.02 13 4 13 C3.32694982 11.39850114 2.66177773 9.79368971 2 8.1875 C1.62875 7.29417969 1.2575 6.40085937 0.875 5.48046875 C0 3 0 3 0 0 Z " fill="#202020" transform="translate(32,9)"/>
<path d="M0 0 C4.62 0 9.24 0 14 0 C14 0.66 14 1.32 14 2 C12.02 2 10.04 2 8 2 C8 6.95 8 11.9 8 17 C7.34 17 6.68 17 6 17 C6 12.05 6 7.1 6 2 C4.02 2 2.04 2 0 2 C0 1.34 0 0.68 0 0 Z " fill="#090909" transform="translate(44,5)"/>
<path d="M0 0 C0.33 0 0.66 0 1 0 C1 3.63 1 7.26 1 11 C-5.75 10.125 -5.75 10.125 -8 9 C-8 8.01 -8 7.02 -8 6 C-6.0085944 5.61866701 -4.00720923 5.28674418 -2 5 C-1.67 5.33 -1.34 5.66 -1 6 C-0.67 4.02 -0.34 2.04 0 0 Z " fill="#373737" transform="translate(67,11)"/>
<path d="M0 0 C2.33944736 0.28730055 4.6739143 0.61936779 7 1 C7 1.99 7 2.98 7 4 C4.36 3.67 1.72 3.34 -1 3 C-1.33 3.99 -1.66 4.98 -2 6 C-1.125 1.125 -1.125 1.125 0 0 Z " fill="#1D1D1D" transform="translate(72,9)"/>
<path d="M0 0 C0.66 0.99 1.32 1.98 2 3 C4.56282742 3.72965366 4.56282742 3.72965366 7 4 C6.67 4.66 6.34 5.32 6 6 C3.625 6.125 3.625 6.125 1 6 C0.34 5.34 -0.32 4.68 -1 4 C-0.625 1.875 -0.625 1.875 0 0 Z " fill="#0A0A0A" transform="translate(20,16)"/>
<path d="M0 0 C1.65 0.33 3.3 0.66 5 1 C5 1.66 5 2.32 5 3 C2.125 3.625 2.125 3.625 -1 4 C-1.66 3.34 -2.32 2.68 -3 2 C-2.01 2 -1.02 2 0 2 C0 1.34 0 0.68 0 0 Z " fill="#DBDBDB" transform="translate(60,11)"/>
<path d="M0 0 C0 0.99 0 1.98 0 3 C-3.28696233 3.79953138 -4.71023192 4.09658936 -8 3 C-6.23110084 -0.53779831 -3.70375662 0 0 0 Z " fill="#DADADA" transform="translate(27,11)"/>
<path d="M0 0 C-0.33 1.32 -0.66 2.64 -1 4 C-2.65 4 -4.3 4 -6 4 C-6 3.01 -6 2.02 -6 1 C-3.92446352 0.4465236 -2.15634036 0 0 0 Z " fill="#E1E1E1" transform="translate(65,16)"/>
<path d="M0 0 C-0.66 1.32 -1.32 2.64 -2 4 C-3.32 4 -4.64 4 -6 4 C-6 3.01 -6 2.02 -6 1 C-4 0 -4 0 0 0 Z " fill="#E0E0E0" transform="translate(28,16)"/>
<path d="M0 0 C1.98 0.66 3.96 1.32 6 2 C5.67 2.66 5.34 3.32 5 4 C3.35 3.67 1.7 3.34 0 3 C0 2.01 0 1.02 0 0 Z " fill="#E4E4E4" transform="translate(72,16)"/>
<path d="M0 0 C2.31 0 4.62 0 7 0 C3.25 2 3.25 2 1 2 C1 2.66 1 3.32 1 4 C0.01 4 -0.98 4 -2 4 C-1.34 2.68 -0.68 1.36 0 0 Z " fill="#2F2F2F" transform="translate(59,9)"/>
</svg>
